<mxfile host="app.diagrams.net" modified="2023-11-29T18:44:28.535Z" agent="Mozilla/5.0 (Windows NT 10.0; Win64; x64) AppleWebKit/537.36 (KHTML, like Gecko) Chrome/119.0.0.0 Safari/537.36" version="22.1.5" etag="JNS0OpuP_sF9CYinUdhu" type="github">
  <diagram name="StrÃ¡nka-1" id="zanQfGVwvl6lQb5acaEU">
    <mxGraphModel>
      <root>
        <mxCell id="0" />
        <mxCell id="1" parent="0" />
      </root>
    </mxGraphModel>
  </diagram>
</mxfile>
